<svg width="232" height="31" viewBox="0 0 232 31" fill="none" xmlns="http://www.w3.org/2000/svg">
<g filter="url(#filter0_d_6_53)">
<path d="M9.47 12.49H14.72L21.29 22H15.35L9.47 12.49ZM4.22 0.999999H9.29V22H4.22V0.999999ZM7.4 5.29V0.999999H11.87C13.67 0.999999 15.17 1.29 16.37 1.87C17.57 2.45 18.48 3.26 19.1 4.3C19.72 5.32 20.03 6.51 20.03 7.87C20.03 9.21 19.72 10.4 19.1 11.44C18.48 12.46 17.57 13.26 16.37 13.84C15.17 14.42 13.67 14.71 11.87 14.71H7.4V10.78H11.51C12.19 10.78 12.77 10.68 13.25 10.48C13.75 10.26 14.13 9.95 14.39 9.55C14.65 9.13 14.78 8.63 14.78 8.05C14.78 7.47 14.65 6.98 14.39 6.58C14.13 6.16 13.75 5.84 13.25 5.62C12.77 5.4 12.19 5.29 11.51 5.29H7.4ZM27.8138 11.5C27.8138 12.74 28.0538 13.84 28.5338 14.8C29.0338 15.74 29.7238 16.48 30.6038 17.02C31.5038 17.56 32.5538 17.83 33.7538 17.83C34.9338 17.83 35.9638 17.56 36.8438 17.02C37.7438 16.48 38.4338 15.74 38.9138 14.8C39.4138 13.84 39.6638 12.74 39.6638 11.5C39.6638 10.26 39.4238 9.17 38.9438 8.23C38.4638 7.27 37.7838 6.52 36.9038 5.98C36.0238 5.44 34.9738 5.17 33.7538 5.17C32.5538 5.17 31.5038 5.44 30.6038 5.98C29.7238 6.52 29.0338 7.27 28.5338 8.23C28.0538 9.17 27.8138 10.26 27.8138 11.5ZM22.4438 11.5C22.4438 9.88 22.7238 8.4 23.2838 7.06C23.8638 5.72 24.6638 4.56 25.6838 3.58C26.7038 2.6 27.9038 1.85 29.2838 1.33C30.6638 0.789999 32.1538 0.519999 33.7538 0.519999C35.3738 0.519999 36.8638 0.789999 38.2238 1.33C39.6038 1.85 40.8038 2.6 41.8238 3.58C42.8438 4.56 43.6338 5.72 44.1938 7.06C44.7538 8.4 45.0338 9.88 45.0338 11.5C45.0338 13.12 44.7538 14.61 44.1938 15.97C43.6538 17.33 42.8738 18.51 41.8538 19.51C40.8538 20.51 39.6638 21.29 38.2838 21.85C36.9038 22.39 35.3938 22.66 33.7538 22.66C32.0938 22.66 30.5738 22.39 29.1938 21.85C27.8138 21.29 26.6138 20.51 25.5938 19.51C24.5938 18.51 23.8138 17.33 23.2538 15.97C22.7138 14.61 22.4438 13.12 22.4438 11.5ZM52.0625 11.56V9.34H55.4525C56.0325 9.34 56.5225 9.25 56.9225 9.07C57.3425 8.89 57.6625 8.64 57.8825 8.32C58.1025 7.98 58.2125 7.57 58.2125 7.09C58.2125 6.37 57.9725 5.83 57.4925 5.47C57.0125 5.11 56.3325 4.93 55.4525 4.93H53.3525V18.07H55.9325C56.5925 18.07 57.1825 17.99 57.7025 17.83C58.2225 17.65 58.6325 17.37 58.9325 16.99C59.2525 16.59 59.4125 16.05 59.4125 15.37C59.4125 14.93 59.3225 14.55 59.1425 14.23C58.9625 13.91 58.7125 13.65 58.3925 13.45C58.0725 13.25 57.7025 13.11 57.2825 13.03C56.8825 12.93 56.4325 12.88 55.9325 12.88H52.0625V10.12H56.5025C57.5225 10.12 58.5125 10.23 59.4725 10.45C60.4325 10.67 61.3025 11.03 62.0825 11.53C62.8625 12.01 63.4825 12.63 63.9425 13.39C64.4225 14.13 64.6625 15.03 64.6625 16.09C64.6625 17.49 64.3225 18.62 63.6425 19.48C62.9825 20.34 62.0425 20.98 60.8225 21.4C59.6025 21.8 58.1625 22 56.5025 22H48.2825V0.999999H55.9925C57.4525 0.999999 58.7325 1.2 59.8325 1.6C60.9525 1.98 61.8325 2.57 62.4725 3.37C63.1325 4.15 63.4625 5.14 63.4625 6.34C63.4625 7.44 63.1325 8.38 62.4725 9.16C61.8325 9.94 60.9525 10.54 59.8325 10.96C58.7325 11.36 57.4525 11.56 55.9925 11.56H52.0625ZM72.3744 11.5C72.3744 12.74 72.6144 13.84 73.0944 14.8C73.5944 15.74 74.2844 16.48 75.1644 17.02C76.0644 17.56 77.1144 17.83 78.3144 17.83C79.4944 17.83 80.5244 17.56 81.4044 17.02C82.3044 16.48 82.9944 15.74 83.4744 14.8C83.9744 13.84 84.2244 12.74 84.2244 11.5C84.2244 10.26 83.9844 9.17 83.5044 8.23C83.0244 7.27 82.3444 6.52 81.4644 5.98C80.5844 5.44 79.5344 5.17 78.3144 5.17C77.1144 5.17 76.0644 5.44 75.1644 5.98C74.2844 6.52 73.5944 7.27 73.0944 8.23C72.6144 9.17 72.3744 10.26 72.3744 11.5ZM67.0044 11.5C67.0044 9.88 67.2844 8.4 67.8444 7.06C68.4244 5.72 69.2244 4.56 70.2444 3.58C71.2644 2.6 72.4644 1.85 73.8444 1.33C75.2244 0.789999 76.7144 0.519999 78.3144 0.519999C79.9344 0.519999 81.4244 0.789999 82.7844 1.33C84.1644 1.85 85.3644 2.6 86.3844 3.58C87.4044 4.56 88.1944 5.72 88.7544 7.06C89.3144 8.4 89.5944 9.88 89.5944 11.5C89.5944 13.12 89.3144 14.61 88.7544 15.97C88.2144 17.33 87.4344 18.51 86.4144 19.51C85.4144 20.51 84.2244 21.29 82.8444 21.85C81.4644 22.39 79.9544 22.66 78.3144 22.66C76.6544 22.66 75.1344 22.39 73.7544 21.85C72.3744 21.29 71.1744 20.51 70.1544 19.51C69.1544 18.51 68.3744 17.33 67.8144 15.97C67.2744 14.61 67.0044 13.12 67.0044 11.5ZM91.7248 19.96C91.7248 19.2 91.9948 18.55 92.5348 18.01C93.0748 17.47 93.7448 17.2 94.5448 17.2C95.3848 17.2 96.0648 17.47 96.5848 18.01C97.1048 18.55 97.3648 19.2 97.3648 19.96C97.3648 20.72 97.1048 21.37 96.5848 21.91C96.0648 22.45 95.3848 22.72 94.5448 22.72C93.7448 22.72 93.0748 22.45 92.5348 21.91C91.9948 21.37 91.7248 20.72 91.7248 19.96ZM103.913 14.62C104.333 15.38 104.803 16.04 105.323 16.6C105.863 17.16 106.443 17.59 107.063 17.89C107.703 18.19 108.373 18.34 109.073 18.34C109.813 18.34 110.423 18.16 110.903 17.8C111.383 17.42 111.623 16.91 111.623 16.27C111.623 15.73 111.483 15.3 111.203 14.98C110.923 14.64 110.473 14.32 109.853 14.02C109.233 13.72 108.413 13.38 107.393 13C106.893 12.82 106.313 12.57 105.653 12.25C105.013 11.93 104.403 11.52 103.823 11.02C103.243 10.5 102.763 9.88 102.383 9.16C102.003 8.42 101.813 7.53 101.813 6.49C101.813 5.25 102.133 4.18 102.773 3.28C103.433 2.38 104.313 1.7 105.413 1.24C106.533 0.759999 107.773 0.519999 109.133 0.519999C110.533 0.519999 111.743 0.749999 112.763 1.21C113.803 1.67 114.663 2.25 115.343 2.95C116.023 3.65 116.543 4.36 116.903 5.08L113.033 7.24C112.733 6.74 112.383 6.31 111.983 5.95C111.603 5.57 111.173 5.28 110.693 5.08C110.233 4.86 109.733 4.75 109.193 4.75C108.473 4.75 107.923 4.91 107.543 5.23C107.163 5.53 106.973 5.91 106.973 6.37C106.973 6.85 107.153 7.27 107.513 7.63C107.893 7.99 108.423 8.32 109.103 8.62C109.803 8.92 110.643 9.24 111.623 9.58C112.363 9.86 113.053 10.19 113.693 10.57C114.333 10.93 114.893 11.37 115.373 11.89C115.873 12.41 116.263 13.01 116.543 13.69C116.823 14.37 116.963 15.15 116.963 16.03C116.963 17.09 116.743 18.04 116.303 18.88C115.883 19.7 115.303 20.39 114.563 20.95C113.843 21.51 113.013 21.93 112.073 22.21C111.153 22.51 110.203 22.66 109.223 22.66C107.863 22.66 106.593 22.42 105.413 21.94C104.253 21.44 103.243 20.77 102.383 19.93C101.523 19.09 100.853 18.17 100.373 17.17L103.913 14.62ZM124.673 11.5C124.673 12.78 124.963 13.89 125.543 14.83C126.123 15.75 126.883 16.45 127.823 16.93C128.783 17.41 129.833 17.65 130.973 17.65C131.973 17.65 132.853 17.52 133.613 17.26C134.373 17 135.053 16.66 135.653 16.24C136.253 15.82 136.783 15.37 137.243 14.89V20.35C136.403 21.01 135.483 21.53 134.483 21.91C133.483 22.29 132.213 22.48 130.673 22.48C128.993 22.48 127.443 22.22 126.023 21.7C124.603 21.18 123.383 20.43 122.363 19.45C121.343 18.47 120.553 17.31 119.993 15.97C119.433 14.63 119.153 13.14 119.153 11.5C119.153 9.86 119.433 8.37 119.993 7.03C120.553 5.69 121.343 4.53 122.363 3.55C123.383 2.57 124.603 1.82 126.023 1.3C127.443 0.779999 128.993 0.519999 130.673 0.519999C132.213 0.519999 133.483 0.709999 134.483 1.09C135.483 1.47 136.403 1.99 137.243 2.65V8.11C136.783 7.63 136.253 7.18 135.653 6.76C135.053 6.32 134.373 5.98 133.613 5.74C132.853 5.48 131.973 5.35 130.973 5.35C129.833 5.35 128.783 5.59 127.823 6.07C126.883 6.55 126.123 7.25 125.543 8.17C124.963 9.09 124.673 10.2 124.673 11.5ZM142.798 13.21V8.65H158.698V13.21H142.798ZM155.488 0.999999H160.558V22H155.488V0.999999ZM141.388 0.999999H146.458V22H141.388V0.999999ZM169.142 11.5C169.142 12.74 169.382 13.84 169.862 14.8C170.362 15.74 171.052 16.48 171.932 17.02C172.832 17.56 173.882 17.83 175.082 17.83C176.262 17.83 177.292 17.56 178.172 17.02C179.072 16.48 179.762 15.74 180.242 14.8C180.742 13.84 180.992 12.74 180.992 11.5C180.992 10.26 180.752 9.17 180.272 8.23C179.792 7.27 179.112 6.52 178.232 5.98C177.352 5.44 176.302 5.17 175.082 5.17C173.882 5.17 172.832 5.44 171.932 5.98C171.052 6.52 170.362 7.27 169.862 8.23C169.382 9.17 169.142 10.26 169.142 11.5ZM163.772 11.5C163.772 9.88 164.052 8.4 164.612 7.06C165.192 5.72 165.992 4.56 167.012 3.58C168.032 2.6 169.232 1.85 170.612 1.33C171.992 0.789999 173.482 0.519999 175.082 0.519999C176.702 0.519999 178.192 0.789999 179.552 1.33C180.932 1.85 182.132 2.6 183.152 3.58C184.172 4.56 184.962 5.72 185.522 7.06C186.082 8.4 186.362 9.88 186.362 11.5C186.362 13.12 186.082 14.61 185.522 15.97C184.982 17.33 184.202 18.51 183.182 19.51C182.182 20.51 180.992 21.29 179.612 21.85C178.232 22.39 176.722 22.66 175.082 22.66C173.422 22.66 171.902 22.39 170.522 21.85C169.142 21.29 167.942 20.51 166.922 19.51C165.922 18.51 165.142 17.33 164.582 15.97C164.042 14.61 163.772 13.12 163.772 11.5ZM193.781 11.5C193.781 12.74 194.021 13.84 194.501 14.8C195.001 15.74 195.691 16.48 196.571 17.02C197.471 17.56 198.521 17.83 199.721 17.83C200.901 17.83 201.931 17.56 202.811 17.02C203.711 16.48 204.401 15.74 204.881 14.8C205.381 13.84 205.631 12.74 205.631 11.5C205.631 10.26 205.391 9.17 204.911 8.23C204.431 7.27 203.751 6.52 202.871 5.98C201.991 5.44 200.941 5.17 199.721 5.17C198.521 5.17 197.471 5.44 196.571 5.98C195.691 6.52 195.001 7.27 194.501 8.23C194.021 9.17 193.781 10.26 193.781 11.5ZM188.411 11.5C188.411 9.88 188.691 8.4 189.251 7.06C189.831 5.72 190.631 4.56 191.651 3.58C192.671 2.6 193.871 1.85 195.251 1.33C196.631 0.789999 198.121 0.519999 199.721 0.519999C201.341 0.519999 202.831 0.789999 204.191 1.33C205.571 1.85 206.771 2.6 207.791 3.58C208.811 4.56 209.601 5.72 210.161 7.06C210.721 8.4 211.001 9.88 211.001 11.5C211.001 13.12 210.721 14.61 210.161 15.97C209.621 17.33 208.841 18.51 207.821 19.51C206.821 20.51 205.631 21.29 204.251 21.85C202.871 22.39 201.361 22.66 199.721 22.66C198.061 22.66 196.541 22.39 195.161 21.85C193.781 21.29 192.581 20.51 191.561 19.51C190.561 18.51 189.781 17.33 189.221 15.97C188.681 14.61 188.411 13.12 188.411 11.5ZM214.249 0.999999H219.319V17.65H227.749V22H214.249V0.999999Z" fill="white"/>
</g>
<defs>
<filter id="filter0_d_6_53" x="0.219971" y="0.52002" width="231.529" height="30.2" filterUnits="userSpaceOnUse" color-interpolation-filters="sRGB">
<feFlood flood-opacity="0" result="BackgroundImageFix"/>
<feColorMatrix in="SourceAlpha" type="matrix" values="0 0 0 0 0 0 0 0 0 0 0 0 0 0 0 0 0 0 127 0" result="hardAlpha"/>
<feOffset dy="4"/>
<feGaussianBlur stdDeviation="2"/>
<feComposite in2="hardAlpha" operator="out"/>
<feColorMatrix type="matrix" values="0 0 0 0 0 0 0 0 0 0 0 0 0 0 0 0 0 0 0.25 0"/>
<feBlend mode="normal" in2="BackgroundImageFix" result="effect1_dropShadow_6_53"/>
<feBlend mode="normal" in="SourceGraphic" in2="effect1_dropShadow_6_53" result="shape"/>
</filter>
</defs>
</svg>
